{"title":"Once.Were.Warriors.1994.SWESUB.DVDRip.XviD.Zen_Bud.avi","uid":5805033,"size":1001064448,"categoryP":"video","categoryS":"movies","magnet":"?xt=urn:btih:9bad356a8a1ab9d8ed3b4ff2e4e34e65e174c000&amp;dn=Once.Were.Warriors.1994.SWESUB.DVDRip.XviD.Zen_Bud.avi&amp;tr=udp%3A%2F%2Ftracker.openbittorrent.com%3A80&amp;tr=udp%3A%2F%2Fopen.demonii.com%3A1337&amp;tr=udp%3A%2F%2Ftracker.coppersurfer.tk%3A6969&amp;tr=udp%3A%2F%2Fexodus.desync.com%3A6969","seeders":0,"leechers":0,"uploader":"Zen_Bud","files":-1,"time":1283416230,"description":"***** Once.Were.Warriors.1994.SWESUB.DVDRip.XviD.Zen_Bud.avi ****\n\n\nFormat                           : AVI\nFile size                        : 955 MiB\nDuration                         : 1h 38mn\nOverall bit rate                 : 1 355 Kbps\n\nVideo\n\nFormat                           : MPEG-4 Visual\nCodec ID/Hint                    : XviD\nDuration                         : 1h 38mn\nBit rate                         : 1 218 Kbps\nWidth                            : 640 pixels\nHeight                           : 480 pixels\nDisplay aspect ratio             : 4:3\nStream size                      : 858 MiB (90%)\nWriting library                  : XviD 1.2.1 (UTC 2008-12-04)\n\nAudio\n\nFormat                           : MPEG Audio\nCodec ID/Hint                    : MP3\nDuration                         : 1h 38mn\nBit rate                         : 128 Kbps\nChannel(s)                       : 2 channels\nSampling rate                    : 44.1 KHz\nStream size                      : 90.2 MiB (9%)\n\n\n","torrent":{"xt":"urn:btih:9bad356a8a1ab9d8ed3b4ff2e4e34e65e174c000","amp;dn":"Once.Were.Warriors.1994.SWESUB.DVDRip.XviD.Zen_Bud.avi","amp;tr":["udp%3A%2F%2Ftracker.openbittorrent.com%3A80","udp%3A%2F%2Fopen.demonii.com%3A1337","udp%3A%2F%2Ftracker.coppersurfer.tk%3A6969","udp%3A%2F%2Fexodus.desync.com%3A6969"],"infoHash":"9bad356a8a1ab9d8ed3b4ff2e4e34e65e174c000","infoHashBuffer":{"type":"Buffer","data":[155,173,53,106,138,26,185,216,237,59,79,242,228,227,78,101,225,116,192,0]},"announce":[],"urlList":[]}}